<svg width="41" height="35" viewBox="0 0 41 35" fill="none" xmlns="http://www.w3.org/2000/svg">
<path fill-rule="evenodd" clip-rule="evenodd" d="M0 2.91667C0 1.30585 1.30585 0 2.91667 0H37.9167C39.5275 0 40.8333 1.30585 40.8333 2.91667C40.8333 4.52748 39.5275 5.83333 37.9167 5.83333H2.91667C1.30585 5.83333 0 4.52748 0 2.91667Z" fill="#F9FBFF"/>
<path fill-rule="evenodd" clip-rule="evenodd" d="M0 17.4999C0 15.8891 1.30585 14.5833 2.91667 14.5833H37.9167C39.5275 14.5833 40.8333 15.8891 40.8333 17.4999C40.8333 19.1108 39.5275 20.4166 37.9167 20.4166H2.91667C1.30585 20.4166 0 19.1108 0 17.4999Z" fill="#F9FBFF"/>
<path fill-rule="evenodd" clip-rule="evenodd" d="M0 32.0834C0 30.4725 1.30585 29.1667 2.91667 29.1667H37.9167C39.5275 29.1667 40.8333 30.4725 40.8333 32.0834C40.8333 33.6943 39.5275 35.0001 37.9167 35.0001H2.91667C1.30585 35.0001 0 33.6943 0 32.0834Z" fill="#F9FBFF"/>
</svg>
