<svg width="35" height="35" viewBox="0 0 35 35" fill="none" xmlns="http://www.w3.org/2000/svg">
<path d="M10.2539 15.8047H24.7734V17.4453H10.2539V15.8047ZM10.2539 23.0234H19.1406V24.6641H10.2539V23.0234Z" fill="white"/>
<path d="M27.9727 33.5508H7.02734C6.58984 33.5508 6.17969 33.4688 5.76953 33.3047C5.38672 33.1406 5.03125 32.9219 4.75781 32.6211C4.45703 32.3203 4.23828 31.9922 4.07422 31.6094C3.91016 31.1992 3.82812 30.7891 3.82812 30.3516V8.55859C3.82812 8.12109 3.91016 7.71094 4.07422 7.30078C4.23828 6.91797 4.45703 6.5625 4.75781 6.28906C5.05859 5.98828 5.38672 5.76953 5.76953 5.60547C6.17969 5.44141 6.58984 5.35938 7.02734 5.35938H10.1992V6.97266H7.02734C6.15234 6.97266 5.41406 7.68359 5.41406 8.58594V30.3789C5.41406 31.2539 6.125 31.9922 7.02734 31.9922H27.9453C28.8203 31.9922 29.5586 31.2812 29.5586 30.3789V8.55859C29.5586 7.68359 28.8477 6.94531 27.9453 6.94531H24.8008V5.33203H27.9727C28.4102 5.33203 28.8203 5.41406 29.2305 5.57812C29.6133 5.74219 29.9688 5.96094 30.2422 6.26172C30.543 6.5625 30.7617 6.89063 30.9258 7.27344C31.0898 7.68359 31.1719 8.09375 31.1719 8.53125V30.3242C31.1719 30.7617 31.0898 31.1719 30.9258 31.582C30.7617 31.9648 30.543 32.3203 30.2422 32.5938C29.9414 32.8945 29.6133 33.1133 29.2305 33.2773C28.8203 33.4688 28.4102 33.5508 27.9727 33.5508Z" fill="white"/>
<path d="M25.5391 10.1719H9.46094V4.92188C9.46094 3.80078 10.3633 2.89844 11.4844 2.89844H13.5625C14.3008 1.42188 15.832 0.464844 17.5273 0.464844C19.2227 0.464844 20.7539 1.42188 21.4922 2.89844H23.5703C24.6914 2.89844 25.5938 3.80078 25.5938 4.92188L25.5391 10.1719ZM11.0742 8.55859H23.9531V4.92188C23.9531 4.70312 23.7617 4.51172 23.543 4.51172H20.3438L20.1523 3.96484C19.7695 2.84375 18.7031 2.07812 17.5 2.07812C16.2969 2.07812 15.2305 2.84375 14.8477 3.96484L14.6562 4.51172H11.457C11.2383 4.51172 11.0469 4.70312 11.0469 4.92188V8.55859H11.0742Z" fill="white"/>
</svg>
