<svg width="21" height="12" viewBox="0 0 21 12" fill="none" xmlns="http://www.w3.org/2000/svg">
<path fill-rule="evenodd" clip-rule="evenodd" d="M1.44812 4.03174C1.44812 3.47945 1.89584 3.03174 2.44812 3.03174H3.07735C3.68177 3.03174 4.14803 3.5638 4.0687 4.16299L3.99396 4.72754H17.1074L17.0327 4.16299C16.9533 3.5638 17.4196 3.03174 18.024 3.03174H18.6533C19.2055 3.03174 19.6533 3.47945 19.6533 4.03174V11.156C19.6533 11.622 19.2755 11.9997 18.8096 11.9997C18.3864 11.9997 18.0287 11.6863 17.9732 11.2668L17.2398 5.72754H3.86156L3.12821 11.2668C3.07267 11.6863 2.71497 11.9997 2.29182 11.9997C1.82586 11.9997 1.44812 11.622 1.44812 11.156V4.03174Z" fill="#636363"/>
<rect x="0.260864" width="20.5797" height="3.21928" rx="1.60964" fill="#FCAC37"/>
</svg>
