<svg width="66" height="35" viewBox="0 0 66 35" fill="none" xmlns="http://www.w3.org/2000/svg">
<path d="M0 1.71429C0 0.767512 0.767512 0 1.71429 0H64.2857C65.2325 0 66 0.767512 66 1.71429V25.2857C66 26.2325 65.2325 27 64.2857 27H0V1.71429Z" fill="#E91F1F"/>
<path d="M0 27H8V35L0 27Z" fill="#9A0606"/>
<path d="M15.1449 21V5.87273H18.8011V11.9443H24.7619V5.87273H28.4108V21H24.7619V14.921H18.8011V21H15.1449ZM36.0003 21.2142C34.8086 21.2142 33.7844 20.9705 32.9276 20.483C32.0757 19.9905 31.4183 19.3061 30.9554 18.4295C30.4974 17.5481 30.2685 16.5263 30.2685 15.3642C30.2685 14.1972 30.4974 13.1754 30.9554 12.2989C31.4183 11.4174 32.0757 10.733 32.9276 10.2455C33.7844 9.75303 34.8086 9.50682 36.0003 9.50682C37.192 9.50682 38.2137 9.75303 39.0656 10.2455C39.9224 10.733 40.5798 11.4174 41.0378 12.2989C41.5007 13.1754 41.7321 14.1972 41.7321 15.3642C41.7321 16.5263 41.5007 17.5481 41.0378 18.4295C40.5798 19.3061 39.9224 19.9905 39.0656 20.483C38.2137 20.9705 37.192 21.2142 36.0003 21.2142ZM36.0224 18.4886C36.4558 18.4886 36.8226 18.3557 37.123 18.0898C37.4234 17.8239 37.6524 17.4545 37.8099 16.9818C37.9724 16.5091 38.0537 15.9625 38.0537 15.342C38.0537 14.7117 37.9724 14.1602 37.8099 13.6875C37.6524 13.2148 37.4234 12.8455 37.123 12.5795C36.8226 12.3136 36.4558 12.1807 36.0224 12.1807C35.5743 12.1807 35.1952 12.3136 34.8849 12.5795C34.5796 12.8455 34.3457 13.2148 34.1832 13.6875C34.0257 14.1602 33.9469 14.7117 33.9469 15.342C33.9469 15.9625 34.0257 16.5091 34.1832 16.9818C34.3457 17.4545 34.5796 17.8239 34.8849 18.0898C35.1952 18.3557 35.5743 18.4886 36.0224 18.4886ZM49.9864 9.65455V12.3136H42.829V9.65455H49.9864ZM44.3284 6.93636H47.9403V17.4324C47.9403 17.654 47.9748 17.8337 48.0437 17.9716C48.1176 18.1045 48.2235 18.2006 48.3614 18.2597C48.4992 18.3138 48.6642 18.3409 48.8562 18.3409C48.9941 18.3409 49.1394 18.3286 49.292 18.304C49.4496 18.2744 49.5678 18.2498 49.6466 18.2301L50.1932 20.8375C50.0208 20.8867 49.7771 20.9483 49.4619 21.0222C49.1517 21.096 48.7799 21.1428 48.3466 21.1625C47.4996 21.2019 46.7733 21.1034 46.1676 20.867C45.5669 20.6258 45.1064 20.2515 44.7864 19.7443C44.4712 19.2371 44.3186 18.5994 44.3284 17.8313V6.93636Z" fill="white"/>
</svg>
