<svg width="30" height="30" viewBox="0 0 30 30" fill="none" xmlns="http://www.w3.org/2000/svg">
<path d="M2.81299 19.6879L27.188 19.6879C27.7058 19.6879 28.1255 19.2681 28.1255 18.7504V5.62537C28.1255 5.1076 27.7058 4.68787 27.188 4.68787L2.81299 4.68787C2.29522 4.68787 1.87549 5.1076 1.87549 5.62537V18.7504C1.87549 19.2681 2.29522 19.6879 2.81299 19.6879Z" stroke="#1EA54C" stroke-width="2" stroke-linejoin="round"/>
<path d="M3.75146 22.5004H26.2515" stroke="#1EA54C" stroke-width="2" stroke-linecap="round" stroke-linejoin="round"/>
<path d="M5.62646 25.313H24.3765" stroke="#1EA54C" stroke-width="2" stroke-linecap="round" stroke-linejoin="round"/>
<path d="M15.0016 16.8765C17.5909 16.8765 19.6898 14.7775 19.6898 12.1883C19.6898 9.59909 17.5909 7.50012 15.0016 7.50012C12.4124 7.50012 10.3135 9.59909 10.3135 12.1883C10.3135 14.7775 12.4124 16.8765 15.0016 16.8765Z" stroke="#1EA54C" stroke-width="2" stroke-linecap="round" stroke-linejoin="round"/>
<path d="M28.1309 9.37857C26.8868 9.37857 25.6936 8.88435 24.8139 8.00462C23.9342 7.1249 23.4399 5.93174 23.4399 4.68762" stroke="#1EA54C" stroke-width="2" stroke-linecap="round" stroke-linejoin="round"/>
<path d="M1.87695 9.37845C2.49298 9.37845 3.10297 9.25711 3.6721 9.02137C4.24123 8.78563 4.75836 8.4401 5.19396 8.0045C5.62955 7.56891 5.97508 7.05178 6.21083 6.48265C6.44657 5.91352 6.5679 5.30352 6.5679 4.6875" stroke="#1EA54C" stroke-width="2" stroke-linecap="round" stroke-linejoin="round"/>
<path d="M28.1309 15.0007C26.8868 15.0007 25.6936 15.495 24.8139 16.3747C23.9342 17.2544 23.4399 18.4476 23.4399 19.6917" stroke="#1EA54C" stroke-width="2" stroke-linecap="round" stroke-linejoin="round"/>
<path d="M1.87744 15.0007C2.49347 15.0007 3.10346 15.1221 3.67259 15.3578C4.24172 15.5936 4.75885 15.9391 5.19444 16.3747C5.63004 16.8103 5.97557 17.3274 6.21131 17.8965C6.44706 18.4657 6.56839 19.0757 6.56839 19.6917" stroke="#1EA54C" stroke-width="2" stroke-linecap="round" stroke-linejoin="round"/>
</svg>
