<svg width="36" height="35" viewBox="0 0 36 35" fill="none" xmlns="http://www.w3.org/2000/svg">
<path d="M8.16431 0.467902H16.773L12.6652 4.80926H8.16431C7.6563 4.80964 7.15339 4.91165 6.68453 5.10942C6.21567 5.30718 5.79014 5.5968 5.43243 5.96158C5.07171 6.32332 4.78533 6.75366 4.58977 7.2278C4.39421 7.70194 4.29333 8.21053 4.29296 8.72426V30.6586H25.9828C26.4908 30.6586 26.9939 30.5567 27.4628 30.3589C27.9317 30.1611 28.3572 29.8714 28.7147 29.5063C29.0756 29.1448 29.3622 28.7145 29.5578 28.2403C29.7533 27.7661 29.8541 27.2574 29.8541 26.7436V22.264L34.1471 17.7296V26.7436C34.1457 27.8261 33.9334 28.8977 33.5224 29.8972C33.1113 30.8967 32.5095 31.8044 31.7514 32.5686V32.583C30.2261 34.1284 28.1562 34.9978 25.997 35H3.27598C2.41001 34.9984 1.58009 34.6492 0.96855 34.0292C0.662686 33.7218 0.419715 33.3565 0.253526 32.9542C0.0873366 32.5518 0.00118658 32.1203 0 31.6842L0 8.72426C0.00142914 7.64222 0.213754 6.57107 0.624834 5.57207C1.03591 4.57307 1.63768 3.66581 2.39574 2.90217L2.40998 2.87625C3.165 2.11051 4.06179 1.50268 5.04913 1.08748C6.03646 0.672274 7.09501 0.457825 8.16431 0.456379V0.467902ZM20.7953 22.0249L12.4145 23.7534L13.6252 14.7336L20.7953 22.0249ZM16.2745 12.0026L27.4328 0.257604C27.5525 0.124772 27.7135 0.0372375 27.8891 0.00947488C28.0647 -0.0182878 28.2444 0.0153837 28.3985 0.104922L34.8023 6.37353C34.8708 6.44191 34.9241 6.52419 34.9589 6.61495C34.9936 6.7057 35.0089 6.80288 35.0038 6.90006C34.9987 6.99724 34.9733 7.09222 34.9292 7.17874C34.8851 7.26525 34.8234 7.34134 34.7482 7.40198L23.4389 19.2968L16.2745 12.0026Z" fill="#FCAC37"/>
</svg>
