<svg width="25" height="25" viewBox="0 0 25 25" fill="none" xmlns="http://www.w3.org/2000/svg">
<g clip-path="url(#clip0_1303_1055)">
<path d="M8.59375 14.8438L5 3.51562C4.84375 2.8125 4.14063 2.34375 3.4375 2.34375H1.5625" stroke="#1EA54C" stroke-width="2" stroke-miterlimit="10" stroke-linejoin="round"/>
<path d="M20.3125 17.9688H6.5625C5.70312 17.9688 5 17.2656 5 16.4062C5 15.5469 5.70312 15 6.5625 14.8438L22.6563 12.5V4.6875H8.59375" stroke="#1EA54C" stroke-width="2" stroke-miterlimit="10" stroke-linejoin="round"/>
<path d="M8.59375 22.6562C9.02522 22.6562 9.375 22.3065 9.375 21.875C9.375 21.4435 9.02522 21.0938 8.59375 21.0938C8.16228 21.0938 7.8125 21.4435 7.8125 21.875C7.8125 22.3065 8.16228 22.6562 8.59375 22.6562Z" stroke="#1EA54C" stroke-width="2" stroke-miterlimit="10" stroke-linejoin="round"/>
<path d="M18.75 22.6562C19.1815 22.6562 19.5312 22.3065 19.5312 21.875C19.5312 21.4435 19.1815 21.0938 18.75 21.0938C18.3185 21.0938 17.9688 21.4435 17.9688 21.875C17.9688 22.3065 18.3185 22.6562 18.75 22.6562Z" stroke="#1EA54C" stroke-width="2" stroke-miterlimit="10" stroke-linejoin="round"/>
</g>
<defs>
<clipPath id="clip0_1303_1055">
<rect width="25" height="25" fill="white"/>
</clipPath>
</defs>
</svg>
