<svg width="15" height="15" viewBox="0 0 15 15" fill="none" xmlns="http://www.w3.org/2000/svg">
<path d="M13.4039 12.7447L10.217 9.55752C10.9831 8.65723 11.4026 7.52106 11.4026 6.33545C11.4026 3.58916 9.16847 1.35498 6.42218 1.35498C3.67589 1.35498 1.44171 3.58916 1.44171 6.33545C1.44171 9.08174 3.67589 11.3159 6.42218 11.3159C7.51759 11.3159 8.58575 10.9512 9.45265 10.285L12.6583 13.4903C12.7579 13.5902 12.8903 13.645 13.0312 13.645C13.1719 13.645 13.3043 13.5902 13.4039 13.4903C13.6096 13.2847 13.6096 12.9501 13.4039 12.7447ZM6.42218 2.35107C8.61915 2.35107 10.4066 4.13848 10.4066 6.33545C10.4066 8.53242 8.61915 10.3198 6.42218 10.3198C4.22521 10.3198 2.43781 8.53242 2.43781 6.33545C2.43781 4.13848 4.22521 2.35107 6.42218 2.35107Z" fill="#1EA54C"/>
</svg>
