<svg width="10" height="17" viewBox="0 0 10 17" fill="none" xmlns="http://www.w3.org/2000/svg">
<path d="M5.03837 0C5.63868 0 6.12368 0.466426 6.12368 1.04375V2.20818C6.17795 2.21471 6.22882 2.22123 6.28309 2.23102C6.29665 2.23428 6.30683 2.23428 6.32039 2.23754L7.94836 2.52457C8.53849 2.62895 8.92853 3.17365 8.82 3.73793C8.71146 4.30221 8.14507 4.68057 7.55833 4.57619L5.94732 4.29242C4.88575 4.14238 3.94967 4.2435 3.2917 4.49465C2.63374 4.7458 2.36919 5.09154 2.30814 5.41119C2.24031 5.7602 2.29118 5.9559 2.34884 6.07658C2.40989 6.20379 2.53538 6.3473 2.78297 6.50713C3.33579 6.85613 4.18369 7.08445 5.28257 7.36496L5.38092 7.39106C6.35092 7.63895 7.53798 7.93902 8.41979 8.49352C8.9014 8.79686 9.35587 9.20783 9.63737 9.78189C9.92565 10.3657 9.9867 11.0181 9.85443 11.7128C9.62041 12.9523 8.73182 13.7808 7.62955 14.2146C7.1649 14.3972 6.65955 14.5146 6.12368 14.5734V15.6563C6.12368 16.2336 5.63868 16.7 5.03837 16.7C4.43806 16.7 3.95306 16.2336 3.95306 15.6563V14.5179C3.9395 14.5146 3.92254 14.5146 3.90897 14.5114H3.90219C3.07464 14.3874 1.71461 14.045 0.798885 13.6536C0.252839 13.4187 0.00525301 12.8022 0.249448 12.2771C0.493642 11.752 1.13465 11.5139 1.6807 11.7487C2.38954 12.0521 3.55625 12.3521 4.23117 12.4532C5.31309 12.6065 6.20508 12.5185 6.80878 12.2804C7.38196 12.0553 7.64312 11.7291 7.71773 11.3377C7.78217 10.992 7.7313 10.793 7.67364 10.6723C7.6092 10.5419 7.48371 10.3984 7.23273 10.2385C6.67651 9.88953 5.82522 9.66121 4.72296 9.3807L4.62799 9.35787C3.66139 9.10998 2.47433 8.80664 1.59252 8.25215C1.11091 7.94881 0.65983 7.53457 0.378328 6.96051C0.0934344 6.37666 0.0357774 5.72432 0.171441 5.02957C0.415635 3.78359 1.38563 2.97469 2.4879 2.55393C2.93898 2.38105 3.43415 2.26363 3.95306 2.19514V1.04375C3.95306 0.466426 4.43806 0 5.03837 0Z" fill="#FCAC37"/>
</svg>
