<svg width="16" height="16" viewBox="0 0 16 16" fill="none" xmlns="http://www.w3.org/2000/svg">
<rect width="16" height="16" rx="5" fill="#1EA54C"/>
<path d="M8.76923 3.76923C8.76923 3.34375 8.42548 3 8 3C7.57452 3 7.23077 3.34375 7.23077 3.76923V7.23077H3.76923C3.34375 7.23077 3 7.57452 3 8C3 8.42548 3.34375 8.76923 3.76923 8.76923H7.23077V12.2308C7.23077 12.6562 7.57452 13 8 13C8.42548 13 8.76923 12.6562 8.76923 12.2308V8.76923H12.2308C12.6562 8.76923 13 8.42548 13 8C13 7.57452 12.6562 7.23077 12.2308 7.23077H8.76923V3.76923Z" fill="white"/>
</svg>
