<svg width="36" height="33" viewBox="0 0 36 33" fill="none" xmlns="http://www.w3.org/2000/svg">
<path d="M17.9906 0C17.3072 0 16.6242 0.231891 16.0673 0.697266L0.591209 13.6289C0.0174586 14.1082 -0.186764 14.9439 0.194236 15.5874C0.679486 16.4064 1.75331 16.5664 2.45156 15.9829L2.99062 15.5332V29.25C2.99062 31.3207 4.66987 33 6.74062 33H29.2406C31.3114 33 32.9906 31.3207 32.9906 29.25V15.5347L33.5297 15.9844C33.8102 16.2191 34.1502 16.333 34.4892 16.333C35.0104 16.333 35.5276 16.0625 35.8134 15.542C36.1621 14.906 35.9568 14.1027 35.4003 13.6377L32.9906 11.6235V5.25C32.9906 4.42125 32.3194 3.75 31.4906 3.75H29.9906C29.1619 3.75 28.4906 4.42125 28.4906 5.25V7.86328L19.914 0.697266C19.3571 0.231891 18.6741 0 17.9906 0ZM17.9906 3.11426C18.0767 3.11426 18.1622 3.14365 18.2323 3.20215L29.9906 13.0269V28.5C29.9906 29.3288 29.3194 30 28.4906 30H22.4906V19.5C22.4906 18.6712 21.8194 18 20.9906 18H14.9906C14.1619 18 13.4906 18.6712 13.4906 19.5V30H7.49062C6.66187 30 5.99062 29.3288 5.99062 28.5V13.0254L17.7489 3.20215C17.819 3.14365 17.9046 3.11426 17.9906 3.11426Z" fill="white"/>
</svg>
