<svg width="34" height="35" viewBox="0 0 34 35" fill="none" xmlns="http://www.w3.org/2000/svg">
<path d="M5.09172 27.4083H2.15695C1.8741 27.4082 1.59404 27.3465 1.33278 27.2267C1.07153 27.1068 0.834208 26.9312 0.634403 26.7098L0.568205 26.6305C0.201429 26.1888 -0.00143809 25.6105 7.67469e-06 25.0109V10.8096C0.00018848 10.4961 0.0563193 10.1857 0.165182 9.89631C0.274045 9.60686 0.433499 9.34403 0.634403 9.12287L0.703359 9.05272C1.09925 8.64869 1.61823 8.42437 2.15695 8.4244H5.55234C5.52786 8.27546 5.51586 8.12435 5.51649 7.97298V2.48279C5.51664 2.15823 5.57498 1.83693 5.68813 1.53747C5.80129 1.23801 5.967 0.966321 6.17571 0.738126C6.38124 0.506321 6.6262 0.321765 6.8965 0.195085C7.1668 0.0684057 7.45709 0.00210466 7.75066 0L26.1426 0C26.7354 0.00161071 27.3035 0.262742 27.7227 0.726291C28.1419 1.18984 28.3781 1.81808 28.3795 2.47364V7.96383C28.3792 8.11529 28.3663 8.26641 28.3409 8.41525H31.7363C32.3065 8.41646 32.8531 8.66764 33.2561 9.11372C33.4568 9.33442 33.6161 9.59674 33.725 9.88565C33.8339 10.1746 33.8901 10.4844 33.8905 10.7974V25.0109C33.889 25.643 33.6613 26.2487 33.2571 26.6957C32.8529 27.1426 32.3052 27.3945 31.7335 27.3961H28.8015V33.5908C28.8016 33.7767 28.7685 33.9607 28.7042 34.1324C28.6398 34.3041 28.5454 34.46 28.4264 34.5913C28.3925 34.6282 28.3565 34.6628 28.3188 34.695C28.0924 34.8942 27.8111 35.0018 27.5217 35H6.37154C6.20348 35.0001 6.03705 34.9635 5.8818 34.8923C5.72655 34.8211 5.58554 34.7167 5.46684 34.5852C5.4326 34.5485 5.40122 34.5087 5.37306 34.4662C5.1929 34.2158 5.09558 33.9047 5.09723 33.5847V27.4083H5.09172ZM7.44725 8.4244H26.4543L26.5067 8.37254C26.6031 8.2668 26.6576 8.12312 26.6584 7.97298V2.48279C26.6577 2.33176 26.6031 2.18715 26.5065 2.08036C26.4099 1.97357 26.2792 1.91322 26.1426 1.91242H7.75066C7.61399 1.91279 7.48304 1.97312 7.38657 2.08017C7.29078 2.18735 7.23723 2.33209 7.23763 2.48279V7.97298C7.2377 8.04737 7.25115 8.12101 7.2772 8.18961C7.30324 8.2582 7.34136 8.32039 7.38933 8.37254L7.44174 8.4244H7.44725ZM10.0124 30.2967C9.83685 30.2967 9.66847 30.2196 9.54433 30.0823C9.42018 29.945 9.35044 29.7588 9.35044 29.5647C9.35044 29.3705 9.42018 29.1843 9.54433 29.0471C9.66847 28.9098 9.83685 28.8327 10.0124 28.8327H17.5534C17.729 28.8327 17.8974 28.9098 18.0215 29.0471C18.1457 29.1843 18.2154 29.3705 18.2154 29.5647C18.2154 29.7588 18.1457 29.945 18.0215 30.0823C17.8974 30.2196 17.729 30.2967 17.5534 30.2967H10.0124ZM10.0124 25.8558C9.83685 25.8558 9.66847 25.7786 9.54433 25.6414C9.42018 25.5041 9.35044 25.3179 9.35044 25.1237C9.35044 24.9296 9.42018 24.7434 9.54433 24.6061C9.66847 24.4688 9.83685 24.3917 10.0124 24.3917H23.8891C24.0647 24.3917 24.2331 24.4688 24.3572 24.6061C24.4814 24.7434 24.5511 24.9296 24.5511 25.1237C24.5511 25.3179 24.4814 25.5041 24.3572 25.6414C24.2331 25.7786 24.0647 25.8558 23.8891 25.8558H10.0124ZM1.95008 18.4867H31.9432V10.8096C31.9434 10.7791 31.9381 10.7488 31.9277 10.7205C31.9173 10.6923 31.9019 10.6666 31.8825 10.6449C31.8434 10.6025 31.791 10.5785 31.7363 10.5778H2.15695C2.11096 10.5782 2.06638 10.5954 2.03007 10.6266L2.01076 10.6479C1.97221 10.691 1.95043 10.749 1.95008 10.8096V18.4867ZM31.9432 20.6431H28.1865C28.2746 20.701 28.3554 20.7718 28.4264 20.8536C28.5454 20.9848 28.6398 21.1408 28.7042 21.3125C28.7685 21.4841 28.8016 21.6682 28.8015 21.854V25.2518H31.7363C31.7912 25.2518 31.8437 25.2276 31.8825 25.1847C31.9203 25.1412 31.942 25.0835 31.9432 25.0231V20.6431ZM5.7068 20.6431H1.95008V25.0109C1.95063 25.0612 1.96506 25.1102 1.99146 25.1512L2.01076 25.1725C2.04952 25.2154 2.1021 25.2396 2.15695 25.2396H5.09172V21.854C5.09164 21.6682 5.12473 21.4841 5.1891 21.3125C5.25347 21.1408 5.34786 20.9848 5.46684 20.8536C5.53789 20.7718 5.61861 20.701 5.7068 20.6431ZM26.8542 21.9333H7.03903V32.8619H26.8542V21.9333Z" fill="#1EA54C"/>
</svg>
