<svg width="63" height="67" viewBox="0 0 63 67" fill="none" xmlns="http://www.w3.org/2000/svg">
<path d="M24.003 13.0016C24.003 14.1064 23.1074 15.0019 22.0026 15.0019L8.00034 15.002C6.89559 15.002 6.00001 14.1064 6.00001 13.0016L6.00001 12.0015C6.00001 7.03009 10.0301 2.99999 15.0015 2.99999V2.99999C19.9729 2.99999 24.003 7.03009 24.003 12.0015L24.003 13.0016Z" fill="#2E3D4A"/>
<path d="M39 53.0003C39 51.8956 39.8956 51 41.0003 51L55.0026 51C56.1073 51 57.0029 51.8956 57.0029 53.0003L57.0029 54.0005C57.0029 58.9719 52.9728 63.002 48.0014 63.002V63.002C43.0301 63.002 39 58.9719 39 54.0005L39 53.0003Z" fill="#2E3D4A"/>
<path d="M56.003 13.0016C56.003 14.1064 55.1074 15.0019 54.0026 15.0019L40.0003 15.002C38.8956 15.002 38 14.1064 38 13.0016L38 12.0015C38 7.03009 42.0301 2.99999 47.0015 2.99999V2.99999C51.9729 2.99999 56.003 7.03009 56.003 12.0015L56.003 13.0016Z" fill="#2E3D4A"/>
<path d="M6.99998 53.0003C6.99998 51.8956 7.89556 51 9.0003 51L23.0026 51C24.1073 51 25.0029 51.8956 25.0029 53.0003L25.0029 54.0005C25.0029 58.9719 20.9728 63.002 16.0014 63.002V63.002C11.0301 63.002 6.99998 58.9719 6.99998 54.0005L6.99998 53.0003Z" fill="#2E3D4A"/>
<rect x="24.0029" width="2" height="18.0029" rx="1" transform="rotate(90 24.0029 0)" fill="#2E3D4A"/>
<rect x="39" y="66.002" width="2" height="18.0029" rx="1" transform="rotate(-90 39 66.002)" fill="#2E3D4A"/>
<rect x="56.0029" width="2" height="18.0029" rx="1" transform="rotate(90 56.0029 0)" fill="#2E3D4A"/>
<rect x="7" y="66.002" width="2" height="18.0029" rx="1" transform="rotate(-90 7 66.002)" fill="#2E3D4A"/>
<rect x="0.5" y="16.5" width="62" height="33" rx="4.5" fill="#2E3D4A" stroke="#161616"/>
</svg>
