<svg width="19" height="20" viewBox="0 0 19 20" fill="none" xmlns="http://www.w3.org/2000/svg">
<path fill-rule="evenodd" clip-rule="evenodd" d="M4.40574 1C4.40574 0.447715 4.85346 0 5.40574 0H5.46371C6.016 0 6.46371 0.447715 6.46371 1V3H4.40574V1ZM14.6956 3H18.3115C18.5877 3 18.8115 3.22386 18.8115 3.5V6.5C18.8115 6.77614 18.5877 7 18.3115 7H0.789795C0.513652 7 0.289795 6.77614 0.289795 6.5V3.5C0.289795 3.22386 0.513653 3 0.789795 3H4.40574V4C4.40574 4.55228 4.85346 5 5.40574 5H5.46371C6.016 5 6.46371 4.55228 6.46371 4V3H12.6376V4C12.6376 4.55228 13.0853 5 13.6376 5H13.6956C14.2479 5 14.6956 4.55228 14.6956 4V3ZM14.6956 3H12.6376V1C12.6376 0.447715 13.0853 0 13.6376 0H13.6956C14.2479 0 14.6956 0.447715 14.6956 1V3Z" fill="#FCAC37"/>
<rect x="0.789795" y="8.5" width="17.5217" height="11" stroke="white"/>
<rect x="3.37671" y="10" width="2.05797" height="2" fill="white"/>
<rect x="3.37671" y="13" width="2.05797" height="2" fill="white"/>
<rect x="3.37671" y="16" width="2.05797" height="2" fill="white"/>
<rect x="8.52173" y="10" width="2.05797" height="2" fill="white"/>
<rect x="8.52173" y="13" width="2.05797" height="2" fill="white"/>
<rect x="8.52173" y="16" width="2.05797" height="2" fill="white"/>
<rect x="13.6666" y="10" width="2.05797" height="2" fill="white"/>
<rect x="13.6666" y="13" width="2.05797" height="2" fill="white"/>
<rect x="13.6666" y="16" width="2.05797" height="2" fill="white"/>
</svg>
